<?xml version="1.0" encoding="UTF-8" standalone="no"?><svg xmlns="http://www.w3.org/2000/svg" xmlns:xlink="http://www.w3.org/1999/xlink" contentScriptType="application/ecmascript" contentStyleType="text/css" height="1084px" preserveAspectRatio="none" style="width:412px;height:1084px;" version="1.1" viewBox="0 0 412 1084" width="412px" zoomAndPan="magnify"><defs><linearGradient id="g121tpdbwkzi470" x1="0%" x2="100%" y1="0%" y2="100%"><stop offset="0%" stop-color="#72BF43"/><stop offset="100%" stop-color="#FFFFFF"/></linearGradient><filter height="300%" id="f121tpdbwkzi47" width="300%" x="-1" y="-1"><feGaussianBlur result="blurOut" stdDeviation="2.0"/><feColorMatrix in="blurOut" result="blurOut2" type="matrix" values="0 0 0 0 0 0 0 0 0 0 0 0 0 0 0 0 0 0 .4 0"/><feOffset dx="4.0" dy="4.0" in="blurOut2" result="blurOut3"/><feBlend in="SourceGraphic" in2="blurOut3" mode="normal"/></filter><linearGradient id="g121tpdbwkzi471" x1="0%" x2="100%" y1="0%" y2="100%"><stop offset="0%" stop-color="#808080"/><stop offset="100%" stop-color="#D3D3D3"/></linearGradient></defs><g><text fill="#FF0000" font-family="sans-serif" font-size="10" lengthAdjust="spacingAndGlyphs" textLength="48" x="10" y="18.3252">Warning:</text><text fill="#888888" font-family="sans-serif" font-size="10" lengthAdjust="spacingAndGlyphs" textLength="150" x="10" y="29.6533">Do not use in production.</text><text fill="#000000" font-family="Bradley Hand" font-size="18" lengthAdjust="spacingAndGlyphs" textLength="0" x="209.5" y="67.6416"/><text fill="#000000" font-family="Bradley Hand" font-size="18" lengthAdjust="spacingAndGlyphs" textLength="297" x="55.5" y="88.0322">Simple lifeline of a commit</text><text fill="#000000" font-family="Bradley Hand" font-size="18" lengthAdjust="spacingAndGlyphs" textLength="0" x="209.5" y="108.4229"/><!--entity commit1--><ellipse cx="192.5" cy="947.8281" fill="url(#g121tpdbwkzi470)" filter="url(#f121tpdbwkzi47)" rx="8" ry="8" style="stroke: #000000; stroke-width: 2.0;"/><text fill="#000000" font-family="Bradley Hand" font-size="14" lengthAdjust="spacingAndGlyphs" textLength="56" x="164.5" y="986.4834">a992090</text><!--entity commit2--><ellipse cx="192.5" cy="755.8281" fill="url(#g121tpdbwkzi470)" filter="url(#f121tpdbwkzi47)" rx="8" ry="8" style="stroke: #000000; stroke-width: 2.0;"/><text fill="#000000" font-family="Bradley Hand" font-size="14" lengthAdjust="spacingAndGlyphs" textLength="56" x="164.5" y="794.4834">ba27a9d</text><!--entity commit3--><ellipse cx="131.5" cy="563.8281" fill="url(#g121tpdbwkzi471)" filter="url(#f121tpdbwkzi47)" rx="8" ry="8" style="stroke: #808080; stroke-width: 2.0;"/><text fill="#000000" font-family="Bradley Hand" font-size="14" lengthAdjust="spacingAndGlyphs" textLength="56" x="103.5" y="602.4834">6fc5c56</text><!--entity commit4--><ellipse cx="131.5" cy="371.8281" fill="url(#g121tpdbwkzi471)" filter="url(#f121tpdbwkzi47)" rx="8" ry="8" style="stroke: #808080; stroke-width: 2.0;"/><text fill="#000000" font-family="Bradley Hand" font-size="14" lengthAdjust="spacingAndGlyphs" textLength="56" x="103.5" y="410.4834">f475085</text><!--entity commit5--><ellipse cx="203.5" cy="179.8281" fill="url(#g121tpdbwkzi471)" filter="url(#f121tpdbwkzi47)" rx="8" ry="8" style="stroke: #808080; stroke-width: 2.0;"/><text fill="#000000" font-family="Bradley Hand" font-size="14" lengthAdjust="spacingAndGlyphs" textLength="56" x="175.5" y="218.4834">6239bf2</text><polygon fill="#FBFB77" filter="url(#f121tpdbwkzi47)" points="285,157.3281,285,202.0547,390,202.0547,390,167.3281,380,157.3281,285,157.3281" style="stroke: #A80036; stroke-width: 1.0;"/><polygon fill="#FBFB77" points="285,157.3281,285,175.8281,212.757,179.8281,285,183.8281,285,202.0547,390,202.0547,390,167.3281,380,157.3281,285,157.3281" style="stroke: #A80036; stroke-width: 1.0;"/><line style="stroke: #A80036; stroke-width: 1.0;" x1="380" x2="380" y1="157.3281" y2="167.3281"/><line style="stroke: #A80036; stroke-width: 1.0;" x1="390" x2="380" y1="167.3281" y2="167.3281"/><text fill="#000000" font-family="sans-serif" font-size="13" lengthAdjust="spacingAndGlyphs" textLength="64" x="301" y="183.1509">Tag v1.2</text><polygon fill="#FBFB77" filter="url(#f121tpdbwkzi47)" points="6,733.3281,6,778.0547,111,778.0547,111,743.3281,101,733.3281,6,733.3281" style="stroke: #A80036; stroke-width: 1.0;"/><polygon fill="#FBFB77" points="6,733.3281,6,778.0547,111,778.0547,111,759.8281,182.939,755.8281,111,751.8281,111,743.3281,101,733.3281,6,733.3281" style="stroke: #A80036; stroke-width: 1.0;"/><line style="stroke: #A80036; stroke-width: 1.0;" x1="101" x2="101" y1="733.3281" y2="743.3281"/><line style="stroke: #A80036; stroke-width: 1.0;" x1="111" x2="101" y1="743.3281" y2="743.3281"/><text fill="#000000" font-family="sans-serif" font-size="13" lengthAdjust="spacingAndGlyphs" textLength="64" x="22" y="759.1509">Tag v1.1</text><!--link commit2 to commit1--><path d="M192.5,770.3281 C192.5,807.1671 192.5,908.6533 192.5,938.4805 " fill="none" id="commit2-commit1" style="stroke: #000000; stroke-width: 3.0;"/><polygon fill="#000000" points="192.5,764.9921,188.5,773.9921,192.5,769.9921,196.5,773.9921,192.5,764.9921" style="stroke: #000000; stroke-width: 1.0;"/><text fill="#000000" font-family="Bradley Hand" font-size="13" font-style="italic" font-weight="bold" lengthAdjust="spacingAndGlyphs" textLength="0" x="211.5" y="855.6509"/><!--link commit3 to commit2--><path d="M135.689,577.8771 C147.393,614.3301 180.204,716.5301 189.82,746.4801 " fill="none" id="commit3-commit2" style="stroke: #808080; stroke-width: 3.0;"/><polygon fill="#808080" points="134.121,572.9921,133.0634,582.784,135.6493,577.7528,140.6806,580.3387,134.121,572.9921" style="stroke: #808080; stroke-width: 1.0;"/><text fill="#000000" font-family="Bradley Hand" font-size="13" font-style="italic" font-weight="bold" lengthAdjust="spacingAndGlyphs" textLength="0" x="186.5" y="663.6509"/><!--link commit4 to commit3--><path d="M131.5,386.3281 C131.5,423.1671 131.5,524.6531 131.5,554.4801 " fill="none" id="commit4-commit3" style="stroke: #808080; stroke-width: 3.0;"/><polygon fill="#808080" points="131.5,380.9921,127.5,389.9921,131.5,385.9921,135.5,389.9921,131.5,380.9921" style="stroke: #808080; stroke-width: 1.0;"/><text fill="#000000" font-family="Bradley Hand" font-size="13" font-style="italic" font-weight="bold" lengthAdjust="spacingAndGlyphs" textLength="0" x="150.5" y="471.6509"/><!--link commit5 to commit4--><path d="M198.555,193.8771 C184.741,230.3301 146.013,332.5301 134.663,362.4801 " fill="none" id="commit5-commit4" style="stroke: #808080; stroke-width: 3.0;"/><polygon fill="#808080" points="200.406,188.9921,193.475,195.9894,198.6333,193.6673,200.9554,198.8256,200.406,188.9921" style="stroke: #808080; stroke-width: 1.0;"/><text fill="#000000" font-family="Bradley Hand" font-size="13" font-style="italic" font-weight="bold" lengthAdjust="spacingAndGlyphs" textLength="0" x="193.5" y="279.6509"/><!--link commit5 to commit2--><path d="M204.198,188.9121 C205.37,202.9291 207.684,232.6561 208.5,257.8281 C209.019,273.8201 208.562,277.8281 208.5,293.8281 C207.833,464.4991 220.42,507.8101 205.5,677.8281 C203.516,700.4411 198.566,726.4131 195.379,741.6771 " fill="none" id="commit5-commit2" style="stroke: #000000; stroke-width: 3.0;"/><polygon fill="#000000" points="194.293,746.7901,200.0777,738.8191,195.3331,741.8995,192.2527,737.1549,194.293,746.7901" style="stroke: #000000; stroke-width: 1.0;"/><text fill="#000000" font-family="Bradley Hand" font-size="13" font-style="italic" font-weight="bold" lengthAdjust="spacingAndGlyphs" textLength="136" x="239.5" y="471.6509">git reset ba27a9d</text><text fill="#000000" font-family="Bradley Hand" font-size="14" lengthAdjust="spacingAndGlyphs" textLength="48" x="180" y="1027.4834">master</text><text fill="#888888" font-family="sans-serif" font-size="10" lengthAdjust="spacingAndGlyphs" textLength="0" x="398" y="1060.0127"/><text fill="#888888" font-family="sans-serif" font-size="10" lengthAdjust="spacingAndGlyphs" textLength="270" x="128" y="1071.3408">Generated with PlantUML by Miguel Villafuerte</text><!--
@startuml


skinparam Padding 10

skinparam title {
  FontName "Bradley Hand"
  BorderRoundCorner 15
  titleBorderThickness 2
  titleBorderColor red
  titleBackgroundColor Aqua-CadetBlue
}

skinparam caption {
  FontName "Bradley Hand"
}

skinparam interface {
  BackgroundColor #72BF43/white
  BorderColor black
  FontName "Bradley Hand"
  StereotypeFontColor blue
  SequenceArrowThickness 120
}

skinparam component {
  ArrowFontName "Bradley Hand"
  ArrowColor #000000
  ArrowFontStyle bold_italic
  ArrowThickness 3
}

left header
<font color=red>Warning:</font>
Do not use in production.
endheader


right footer

Generated with PlantUML by Miguel Villafuerte
endfooter


title

Simple lifeline of a commit

endtitle

caption master

() "a992090" as commit1
() "ba27a9d" as commit2
() "6fc5c56" as commit3 #back:grey/lightgrey;line:grey
() "f475085" as commit4 #back:grey/lightgrey;line:grey
() "6239bf2" as commit5 #back:grey/lightgrey;line:grey

commit1 -u-> commit2 : " "
commit2 -u-> commit3 #grey : " "
commit3 -u-> commit4 #grey : " "
commit4 -u-> commit5 #grey : " "


commit5 - -> commit2 : "  git reset ba27a9d"


note right of commit5
  Tag v1.2
end note


note left of commit2
  Tag v1.1
end note


@enduml

PlantUML version 1.2017.20(Mon Dec 11 16:57:05 GMT 2017)
(APACHE source distribution)
Java Runtime: OpenJDK Runtime Environment
JVM: OpenJDK 64-Bit Server VM
Java Version: 1.8.0_131-b11
Operating System: Linux
OS Version: 4.4.0-101-generic
Default Encoding: UTF-8
Language: en
Country: US
--></g></svg>